<svg xmlns="http://www.w3.org/2000/svg" xmlns:xlink="http://www.w3.org/1999/xlink" width="300" zoomAndPan="magnify" viewBox="0 0 224.87999 89.999999" height="120" preserveAspectRatio="xMidYMid meet" version="1.0"><defs><g/></defs><g fill="#000000" fill-opacity="1"><g transform="translate(26.015285, 69.213522)"><g><path d="M 42.984375 0 L 21.03125 -25.359375 L 21.03125 0 L 5.625 0 L 5.625 -52.25 L 20.28125 -52.25 L 42.21875 -26.5 L 42.21875 -52.25 L 57.640625 -52.25 L 57.640625 0 Z M 42.984375 0 "/></g></g></g><g fill="#ff3131" fill-opacity="1"><g transform="translate(89.237129, 69.213522)"><g><path d="M 25.28125 -41 C 32.320312 -41 37.851562 -39.210938 41.875 -35.640625 C 45.90625 -32.078125 47.921875 -26.878906 47.921875 -20.046875 C 47.921875 -13.210938 45.90625 -8.007812 41.875 -4.4375 C 37.851562 -0.875 32.320312 0.90625 25.28125 0.90625 C 18.25 0.90625 12.734375 -0.863281 8.734375 -4.40625 C 4.734375 -7.945312 2.734375 -13.160156 2.734375 -20.046875 C 2.734375 -26.929688 4.734375 -32.144531 8.734375 -35.6875 C 12.734375 -39.226562 18.25 -41 25.28125 -41 Z M 25.28125 -30.75 C 20.320312 -30.75 17.84375 -27.890625 17.84375 -22.171875 L 17.84375 -17.84375 C 17.84375 -12.175781 20.320312 -9.34375 25.28125 -9.34375 C 30.300781 -9.34375 32.8125 -12.175781 32.8125 -17.84375 L 32.8125 -22.171875 C 32.8125 -27.890625 30.300781 -30.75 25.28125 -30.75 Z M 25.28125 -30.75 "/></g></g></g><g fill="#000000" fill-opacity="1"><g transform="translate(139.861551, 69.213522)"><g><path d="M 28.9375 -41.078125 C 30.09375 -41.078125 31.125 -40.9375 32.03125 -40.65625 C 32.945312 -40.382812 33.40625 -40.222656 33.40625 -40.171875 L 33.40625 -27.484375 L 28.546875 -27.484375 C 25.410156 -27.484375 23.144531 -26.671875 21.75 -25.046875 C 20.363281 -23.429688 19.671875 -21.03125 19.671875 -17.84375 L 19.671875 0 L 4.5625 0 L 4.5625 -40.09375 L 16.9375 -40.09375 L 17.921875 -34.015625 C 18.828125 -36.347656 20.269531 -38.109375 22.25 -39.296875 C 24.226562 -40.484375 26.457031 -41.078125 28.9375 -41.078125 Z M 28.9375 -41.078125 "/></g></g></g><g fill="#000000" fill-opacity="1"><g transform="translate(173.571585, 69.213522)"><g><path d="M 5.09375 -44.796875 L 5.09375 -55.0625 L 20.203125 -55.0625 L 20.203125 -44.796875 Z M 5.09375 0 L 5.09375 -40.09375 L 20.203125 -40.09375 L 20.203125 0 Z M 5.09375 0 "/></g></g></g><g fill="#000000" fill-opacity="1"><g transform="translate(144.749357, 85.653775)"><g><path d="M 9.015625 0 L 3.453125 -9.828125 C 3.554688 -8.867188 3.609375 -8.101562 3.609375 -7.53125 L 3.609375 0 L 1.234375 0 L 1.234375 -12.765625 L 4.296875 -12.765625 L 9.9375 -2.859375 C 9.820312 -3.765625 9.765625 -4.59375 9.765625 -5.34375 L 9.765625 -12.765625 L 12.140625 -12.765625 L 12.140625 0 Z M 9.015625 0 "/></g></g><g transform="translate(158.145349, 85.653775)"><g><path d="M 10.609375 -4.90625 C 10.609375 -3.320312 10.164062 -2.078125 9.28125 -1.171875 C 8.394531 -0.265625 7.175781 0.1875 5.625 0.1875 C 4.09375 0.1875 2.890625 -0.265625 2.015625 -1.171875 C 1.148438 -2.078125 0.71875 -3.320312 0.71875 -4.90625 C 0.71875 -6.476562 1.148438 -7.71875 2.015625 -8.625 C 2.890625 -9.53125 4.109375 -9.984375 5.671875 -9.984375 C 7.273438 -9.984375 8.5 -9.546875 9.34375 -8.671875 C 10.1875 -7.796875 10.609375 -6.539062 10.609375 -4.90625 Z M 7.9375 -4.90625 C 7.9375 -6.070312 7.742188 -6.914062 7.359375 -7.4375 C 6.984375 -7.96875 6.4375 -8.234375 5.71875 -8.234375 C 4.164062 -8.234375 3.390625 -7.125 3.390625 -4.90625 C 3.390625 -3.8125 3.578125 -2.976562 3.953125 -2.40625 C 4.335938 -1.84375 4.882812 -1.5625 5.59375 -1.5625 C 7.15625 -1.5625 7.9375 -2.675781 7.9375 -4.90625 Z M 7.9375 -4.90625 "/></g></g><g transform="translate(169.476239, 85.653775)"><g><path d="M 10.609375 -4.90625 C 10.609375 -3.320312 10.164062 -2.078125 9.28125 -1.171875 C 8.394531 -0.265625 7.175781 0.1875 5.625 0.1875 C 4.09375 0.1875 2.890625 -0.265625 2.015625 -1.171875 C 1.148438 -2.078125 0.71875 -3.320312 0.71875 -4.90625 C 0.71875 -6.476562 1.148438 -7.71875 2.015625 -8.625 C 2.890625 -9.53125 4.109375 -9.984375 5.671875 -9.984375 C 7.273438 -9.984375 8.5 -9.546875 9.34375 -8.671875 C 10.1875 -7.796875 10.609375 -6.539062 10.609375 -4.90625 Z M 7.9375 -4.90625 C 7.9375 -6.070312 7.742188 -6.914062 7.359375 -7.4375 C 6.984375 -7.96875 6.4375 -8.234375 5.71875 -8.234375 C 4.164062 -8.234375 3.390625 -7.125 3.390625 -4.90625 C 3.390625 -3.8125 3.578125 -2.976562 3.953125 -2.40625 C 4.335938 -1.84375 4.882812 -1.5625 5.59375 -1.5625 C 7.15625 -1.5625 7.9375 -2.675781 7.9375 -4.90625 Z M 7.9375 -4.90625 "/></g></g><g transform="translate(180.807128, 85.653775)"><g><path d="M 10.078125 0 L 5.484375 -5.859375 L 3.90625 -4.65625 L 3.90625 0 L 1.234375 0 L 1.234375 -12.765625 L 3.90625 -12.765625 L 3.90625 -6.96875 L 9.65625 -12.765625 L 12.78125 -12.765625 L 7.328125 -7.359375 L 13.21875 0 Z M 10.078125 0 "/></g></g></g></svg>